HIERARCHY
ROOT Hips
{
	OFFSET -3.958830 18.904000 13.208200
	CHANNELS 6 Xposition Yposition Zposition Zrotation Yrotation Xrotation 
	JOINT LHipJoint
	{
		OFFSET 0.000000 0.000000 0.000000
		CHANNELS 3 Zrotation Yrotation Xrotation
		JOINT LeftUpLeg
		{
			OFFSET 1.800000 -1.400000 0.085000
			CHANNELS 3 Zrotation Yrotation Xrotation
			JOINT LeftLeg
			{
				OFFSET 2.215000 -6.000000 0.000000
				CHANNELS 3 Zrotation Yrotation Xrotation
				JOINT LeftFoot
				{
					OFFSET 2.500000 -6.900000 0.000000
					CHANNELS 3 Zrotation Yrotation Xrotation
					JOINT LeftToeBase
					{
						OFFSET 0.200000 -0.500000 1.950000
						CHANNELS 3 Zrotation Yrotation Xrotation
						End Site
						{
							OFFSET 0.000000 0.000000 0.000000
						}
					}
				}
			}
		}
	}
	JOINT RHipJoint
	{
		OFFSET 0.000000 0.000000 0.000000
		CHANNELS 3 Zrotation Yrotation Xrotation
		JOINT RightUpLeg
		{
			OFFSET -1.800000 -1.400000 0.085000
			CHANNELS 3 Zrotation Yrotation Xrotation
			JOINT RightLeg
			{
				OFFSET -2.215000 -6.000000 0.000000
				CHANNELS 3 Zrotation Yrotation Xrotation
				JOINT RightFoot
				{
					OFFSET -2.500000 -6.900000 0.000000
					CHANNELS 3 Zrotation Yrotation Xrotation
					JOINT RightToeBase
					{
						OFFSET -0.200000 -0.500000 1.950000
						CHANNELS 3 Zrotation Yrotation Xrotation
						End Site
						{
							OFFSET 0.000000 0.000000 0.000000
						}
					}
				}
			}
		}
	}
	JOINT LowerBack
	{
		OFFSET 0.000000 0.000000 0.000000
		CHANNELS 3 Zrotation Yrotation Xrotation
		JOINT Spine
		{
			OFFSET -0.087000 1.940000 -0.288900
			CHANNELS 3 Zrotation Yrotation Xrotation
			JOINT Spine1
			{
				OFFSET 0.000000 1.950000 0.060000
				CHANNELS 3 Zrotation Yrotation Xrotation
				JOINT Neck
				{
					OFFSET 0.000000 0.000000 0.000000
					CHANNELS 3 Zrotation Yrotation Xrotation
					JOINT Neck1
					{
						OFFSET 0.000000 1.600000 0.340000
						CHANNELS 3 Zrotation Yrotation Xrotation
						JOINT Head
						{
							OFFSET 0.000000 1.667000 -0.240000
							CHANNELS 3 Zrotation Yrotation Xrotation
							End Site
							{
								OFFSET 0.000000 0.000000 0.000000
							}
						}
					}
				}
				JOINT LeftShoulder
				{
					OFFSET 0.000000 0.000000 0.000000
					CHANNELS 3 Zrotation Yrotation Xrotation
					JOINT LeftArm
					{
						OFFSET 2.700000 1.550000 -0.730000
						CHANNELS 3 Zrotation Yrotation Xrotation
						JOINT LeftForeArm
						{
							OFFSET 5.450000 0.000000 0.000000
							CHANNELS 3 Zrotation Yrotation Xrotation
							JOINT LeftHand
							{
								OFFSET 3.450000 0.000000 0.000000
								CHANNELS 3 Zrotation Yrotation Xrotation
								JOINT LeftHandIndex1
								{
									OFFSET 0.750000 0.000000 0.000000
									CHANNELS 3 Zrotation Yrotation Xrotation
									End Site
									{
										OFFSET 0.000000 0.000000 0.000000
									}
								}
							}
						}
					}
				}
				JOINT RightShoulder
				{
					OFFSET 0.000000 0.000000 0.000000
					CHANNELS 3 Zrotation Yrotation Xrotation
					JOINT RightArm
					{
						OFFSET -2.700000 1.550000 -0.730000
						CHANNELS 3 Zrotation Yrotation Xrotation
						JOINT RightForeArm
						{
							OFFSET -5.450000 0.000000 0.000000
							CHANNELS 3 Zrotation Yrotation Xrotation
							JOINT RightHand
							{
								OFFSET -3.450000 0.000000 0.000000
								CHANNELS 3 Zrotation Yrotation Xrotation
								JOINT RightHandIndex1
								{
									OFFSET -0.750000 0.000000 0.000000
									CHANNELS 3 Zrotation Yrotation Xrotation
									End Site
									{
										OFFSET 0.000000 0.000000 0.000000
									}
								}
							}
						}
					}
				}
			}
		}
	}
}
MOTION
Frames: 7
Frame Time: 0.016667
0.173970 16.375390 -4.866400 -5.784014 -0.540889 5.705033 -15.703230 9.518860 5.939868 4.558726 -15.867340 -58.474595 19.940691 -0.501193 78.870795 1.720043 12.522344 0.343750 0.158750 -0.157100 0.402160 18.734809 -6.187767 5.375935 -0.610130 18.368987 -58.442511 -12.062369 -6.457060 83.365070 -2.469493 -11.658247 0.585113 -0.482310 -0.358220 0.206410 -3.543457 -3.085082 -10.507966 10.411826 -9.097116 62.350899 -6.580380 -0.677665 -3.340736 5.015046 -5.740538 -15.126172 -23.854255 7.206571 55.990917 -2.411390 0.680020 -52.191760 11.743917 -18.103853 -0.149883 28.924890 1.367242 -11.918726 54.934104 -71.713654 -29.446732 -2.798605 2.374167 1.052420 -0.608340 0.553440 -0.104870 -20.506717 24.503223 10.076857 -16.137794 0.877086 -9.588569 -101.318638 81.577286 -107.976067 2.573460 1.013930 0.034730 0.117350 0.029230 -0.209020 
0.164170 16.352000 -4.848430 -4.852199 -1.631076 6.259286 -15.830390 9.392235 6.130269 5.981194 -16.818961 -59.648574 17.808813 1.430166 80.933615 1.932954 12.664161 0.320039 0.230750 -0.039200 0.426040 18.641475 -6.011492 5.340110 -0.680519 17.743724 -60.315953 -13.106450 -6.021519 84.833514 -2.556916 -11.848064 0.559882 -0.493740 -0.447670 0.197760 -3.251490 -3.351280 -10.578891 10.122280 -8.434277 61.629284 -5.345148 0.697974 -6.319654 6.044941 -6.141389 -15.648195 -24.540522 9.136568 59.379377 -3.973310 0.749620 -49.837990 13.254576 -21.903340 3.501384 27.299108 0.543283 -10.363430 25.335023 -65.114009 -9.225625 -2.788149 3.230693 0.991690 -0.670270 0.620370 -0.054370 -23.521727 29.446142 3.053792 -14.725316 -0.577145 -20.091153 118.259971 77.140826 103.621053 1.960992 1.735035 0.155550 0.060340 -0.065410 -0.146490 
0.166440 16.383370 -4.825240 -4.122703 -4.797957 8.006160 -15.884890 9.145841 6.280383 8.439738 -16.853958 -61.717887 14.905747 4.595733 82.355019 2.020322 12.909107 0.239437 0.189630 -0.094200 0.426690 18.641163 -5.730605 5.494620 -0.710363 18.233670 -63.219876 -13.893089 -5.217035 85.309918 -2.558804 -11.845446 0.568983 -0.566550 -0.505100 0.173260 -3.253815 -3.417208 -10.686667 9.146277 -8.061286 60.167162 -6.303850 1.486894 -8.204132 6.838407 -4.819798 -17.828706 -23.422555 10.197666 63.433497 -5.872450 0.907770 -47.952900 13.487171 -24.093121 4.430877 27.652679 -4.144567 -9.013695 5.252328 -49.214220 2.048466 -2.685589 3.357309 1.013430 -0.719370 0.649190 -0.080390 -24.904706 31.511324 3.478974 -12.736210 0.817589 -21.656424 140.436349 75.526320 128.360251 1.573773 -0.496057 0.176940 0.039140 -0.059260 -0.148910 
0.184340 16.454890 -4.776310 -3.717937 -7.164819 9.596504 -15.945484 9.046005 6.354565 9.904012 -16.753123 -62.885076 13.402984 6.241502 82.137602 2.141315 12.927108 0.264004 0.090130 -0.258130 0.385660 18.614981 -5.462915 5.657928 -2.258997 18.373390 -66.170644 -12.802452 -6.157102 85.549897 -2.520921 -11.849721 0.571533 -0.706370 -0.559460 0.153770 -3.200346 -3.671308 -10.798958 8.714465 -8.309372 59.792122 -7.051395 2.255188 -11.945338 8.127924 -3.950946 -20.315655 -23.077161 10.862378 65.965690 -7.589790 1.107800 -43.807310 11.164939 -26.668691 5.606168 26.448276 -7.220913 -8.177897 -0.796624 -35.097607 3.604059 -2.576098 3.218121 1.028750 -0.777750 0.649360 -0.099530 -24.168559 33.803276 4.168303 -11.846349 2.306119 -22.382346 161.578721 74.276617 152.297812 1.537147 -1.404165 0.190930 -0.044260 -0.057420 -0.149770 
0.213030 16.548250 -4.753710 -3.420219 -9.324051 8.631833 -15.878938 9.090046 6.207167 10.568509 -16.049902 -61.278497 11.906389 7.789630 81.494644 2.190684 12.913606 0.266060 0.091570 -0.247820 0.369060 18.646556 -5.614527 5.694527 -5.557013 17.595169 -66.620751 -8.137791 -10.465649 85.551730 -2.536091 -12.127645 0.483996 -0.712360 -0.573990 0.166560 -3.391054 -3.373478 -10.754412 9.599386 -9.491174 60.979319 -9.281138 1.805022 -11.980699 8.554412 -3.527963 -21.063159 -20.603853 9.516908 62.916125 -9.093570 1.660000 -40.429850 10.247329 -27.040979 6.904464 23.567330 -7.116353 -7.202353 -1.156226 -24.734212 2.613784 -2.616875 3.012055 0.967620 -0.760090 0.636660 -0.088640 -24.220225 33.177099 3.922237 -10.465152 4.251107 -22.685582 179.860889 71.834031 171.847837 1.511335 -2.051410 0.231190 -0.107750 -0.079020 -0.129380 
0.217750 16.653650 -4.717620 -3.061434 -12.042644 7.302786 -15.751823 9.190098 5.840879 11.174246 -14.210239 -58.162277 10.276984 9.555027 79.846222 2.061270 12.893888 0.234823 0.133770 -0.227320 0.436880 18.713496 -5.880414 5.842014 -9.848953 17.250933 -66.573732 -1.569621 -15.632881 83.751938 -2.561531 -12.493585 0.339959 -0.637480 -0.562540 0.159510 -3.717451 -2.753875 -10.642786 11.923404 -10.468665 60.470412 -12.435655 1.096435 -9.594425 8.719170 -3.608142 -20.979387 -18.835216 8.348522 59.162857 -10.808750 2.072620 -36.159510 8.638963 -26.904468 8.098153 21.725285 -8.131923 -5.432265 -2.502286 -13.450520 1.129761 -2.855245 2.549874 0.937840 -0.709870 0.596460 -0.105460 -23.525614 32.373690 3.607414 -8.406959 7.677235 -21.772095 -166.701310 68.884529 -173.499781 1.561044 -2.397814 0.195030 -0.098100 -0.082660 -0.167000 
0.231160 16.779750 -4.661310 -3.778196 -15.351350 6.202651 -15.690792 9.401326 5.482710 14.038729 -11.461695 -54.888321 7.493901 12.375450 77.998238 2.058347 12.945742 0.204709 0.185550 -0.140240 0.438240 18.714723 -6.053439 5.934923 -13.786356 17.049162 -65.372363 6.207674 -20.741156 79.604778 -2.626534 -12.823105 0.250932 -0.574880 -0.539600 0.178450 -3.878732 -2.501667 -10.535625 13.994121 -11.407549 60.472889 -14.061928 0.641938 -7.773758 9.223887 -4.224048 -20.844225 -18.054873 8.525986 55.145620 -13.627320 3.446580 -32.644730 5.926427 -26.352269 10.276713 17.013153 -6.717473 -3.832231 -2.819203 -4.797670 -0.247395 -3.108264 2.311923 0.844090 -0.655690 0.582070 -0.059580 -22.174046 32.184988 2.933290 -6.481541 11.585215 -20.242906 -166.871118 63.883220 -175.591593 1.671026 -2.347189 0.232640 -0.111320 -0.118680 -0.129800 
